<?xml version="1.0" encoding="utf-8"?>
<!-- Generator: Adobe Illustrator 29.6.1, SVG Export Plug-In . SVG Version: 9.03 Build 0)  -->
<svg version="1.0" id="Layer_1" xmlns="http://www.w3.org/2000/svg" xmlns:xlink="http://www.w3.org/1999/xlink" x="0px" y="0px"
	 viewBox="0 0 768 768" style="enable-background:new 0 0 768 768;" xml:space="preserve">
<g>
	<polygon points="320.9,684 251.4,616.1 251.4,546.6 162.4,546.6 94.5,478.6 94.5,192.3 60.5,192.3 60.5,84 233.6,84 233.6,192.3 
		201.2,192.3 201.2,438.2 251.4,438.2 251.4,329.8 219,329.8 219,223.1 392.1,223.1 392.1,329.8 358.1,329.8 358.1,438.2 
		409.9,438.2 409.9,192.3 375.9,192.3 375.9,84 549,84 549,192.3 516.6,192.3 516.6,478.6 447.1,546.6 358.1,546.6 358.1,577.3 
		568.4,577.3 568.4,329.8 534.4,329.8 534.4,223.1 707.5,223.1 707.5,329.8 675.2,329.8 675.2,616.1 605.6,684 	"/>
</g>
<g>
	<path d="M663.8,655.7L663.8,655.7c-8.1,0-14.6,6.5-14.6,14.6c0,8.1,6.5,14.6,14.6,14.6c8.1,0,14.6-6.5,14.6-14.6
		C678.4,662.2,671.9,655.7,663.8,655.7z M663.8,683.2c-6.5,0-11.3-4.9-11.3-12.9c0-8.1,4.9-12.9,11.3-12.9l0,0
		c6.5,0,11.3,4.9,11.3,12.9C675.2,678.4,670.3,683.2,663.8,683.2z"/>
	<path d="M667.1,671.9L667.1,671.9c1.6,0,3.2-1.6,3.2-4.9s0-3.2,0-3.2s-3.2,0-4.9,0c-1.6,0-3.2,0-4.9,0V680h3.2v-6.5h1.6
		c1.6,0,3.2,0,3.2,3.2c0,1.6,0,3.2,0,4.9h3.2c0,0,0,0,0-3.2c0-1.6,0-3.2-3.2-3.2L667.1,671.9z M663.8,670.3h-1.6v-4.9c0,0,0,0,1.6,0
		c3.2,0,3.2,0,3.2,3.2c0,3.2-1.6,3.2-3.2,3.2V670.3z"/>
</g>
</svg>
