<?xml version="1.0" encoding="utf-8"?>
<!-- Generator: Adobe Illustrator 25.3.1, SVG Export Plug-In . SVG Version: 6.00 Build 0)  -->
<svg version="1.1" id="Layer_1" xmlns="http://www.w3.org/2000/svg" xmlns:xlink="http://www.w3.org/1999/xlink" x="0px" y="0px"
	 viewBox="0 0 48.4 44.2" style="enable-background:new 0 0 48.4 44.2;" xml:space="preserve">
<style type="text/css">
	.st0{fill:#CC0000;}
	.st1{fill:#CC0000;}
</style>
<polygon class="st0" points="0.2,0.2 0.2,13.4 4.6,13.4 4.6,35.3 13.4,44 35.2,44 44,35.3 44,13.4 48.4,13.4 48.4,0.2 26.5,0.2 
	26.5,13.4 30.9,13.4 30.9,30.8 17.7,30.8 17.7,13.4 22.1,13.4 22.1,0.2 "/>
<path class="st1" d="M43.4,38.8c1.3,0,2.4,1.1,2.4,2.4c0,1.3-1.1,2.4-2.4,2.4c-1.3,0-2.4-1.1-2.4-2.4l0,0l0,0
	C41.1,39.9,42.1,38.8,43.4,38.8L43.4,38.8L43.4,38.8z M43.4,39.2c-1.1,0-2,0.9-2,2s0.9,2,2,2s1.9-0.9,1.9-1.9c0,0,0,0,0-0.1l0,0
	C45.3,40.1,44.5,39.2,43.4,39.2C43.5,39.2,43.5,39.2,43.4,39.2L43.4,39.2z M43,42.6h-0.4V40c0.2,0,0.5-0.1,0.8-0.1s0.6,0.1,0.8,0.2
	c0.2,0.1,0.3,0.3,0.2,0.5c0,0.3-0.2,0.6-0.5,0.7l0,0c0.2,0,0.4,0.2,0.5,0.6c0,0.2,0.1,0.4,0.2,0.7H44c-0.1-0.2-0.2-0.4-0.2-0.7
	s-0.2-0.5-0.5-0.5l0,0H43V42.6z M43,41.1h0.3c0.3,0,0.6-0.1,0.6-0.4s-0.2-0.5-0.6-0.5H43V41.1z"/>
</svg>
