<?xml version="1.0" encoding="UTF-8"?>
<svg id="Layer_1" xmlns="http://www.w3.org/2000/svg" version="1.1" viewBox="0 0 40 38">
  <!-- Generator: Adobe Illustrator 29.5.1, SVG Export Plug-In . SVG Version: 2.1.0 Build 141)  -->
  <defs>
    <style>
      .st0 {
        fill: #be0000;
      }
    </style>
  </defs>
  <polygon class="st0" points="16.1 37.1 11.8 32.9 11.8 28.6 6.3 28.6 2.1 24.4 2.1 6.7 0 6.7 0 0 10.7 0 10.7 6.7 8.7 6.7 8.7 21.9 11.8 21.9 11.8 15.2 9.8 15.2 9.8 8.6 20.5 8.6 20.5 15.2 18.4 15.2 18.4 21.9 21.6 21.9 21.6 6.7 19.5 6.7 19.5 0 30.2 0 30.2 6.7 28.2 6.7 28.2 24.4 23.9 28.6 18.4 28.6 18.4 30.5 31.4 30.5 31.4 15.2 29.3 15.2 29.3 8.6 40 8.6 40 15.2 38 15.2 38 32.9 33.7 37.1 16.1 37.1"/>
  <g>
    <path class="st0" d="M37.3,35.4h0c-.5,0-.9.4-.9.9s.4.9.9.9.9-.4.9-.9-.4-.9-.9-.9ZM37.3,37.1c-.4,0-.7-.3-.7-.8s.3-.8.7-.8h0c.4,0,.7.3.7.8s-.3.8-.7.8Z"/>
    <path class="st0" d="M37.5,36.4h0c.1,0,.2-.1.2-.3s0-.2,0-.2c0,0-.2,0-.3,0s-.2,0-.3,0v1h.2v-.4h.1c.1,0,.2,0,.2.2,0,.1,0,.2,0,.3h.2s0,0,0-.2c0-.1,0-.2-.2-.2ZM37.3,36.3h-.1v-.3s0,0,.1,0c.2,0,.2,0,.2.2s-.1.2-.2.2Z"/>
  </g>
</svg>